{"title":"P!nk - iTunes Festival 2012 WEBRip 1080p h264-[f1d] MP4","uid":12118208,"size":1774320671,"categoryP":"video","categoryS":"music_videos","magnet":"?xt=urn:btih:f508e5570dfc979856996e87b2092b632c9cf592&amp;dn=P%21nk+-+iTunes+Festival+2012+WEBRip+1080p+h264-%5Bf1d%5D+MP4&amp;tr=udp%3A%2F%2Ftracker.openbittorrent.com%3A80&amp;tr=udp%3A%2F%2Fopen.demonii.com%3A1337&amp;tr=udp%3A%2F%2Ftracker.coppersurfer.tk%3A6969&amp;tr=udp%3A%2F%2Fexodus.desync.com%3A6969","seeders":0,"leechers":0,"uploader":"F1_Dance","files":1,"time":1436773181,"description":"P!nk - Live from London's Roundhouse at the 2012 iTunes Festival\n\n\n\nSetlist:\n00:00 Are We All We Are \n05:02 How Come You're Not Here \n08:36 U+ Ur hand \n12:46 True Love\n17:00 The Truth About Love \n21:29 Just Like A Pill \n25:41 Leave Me Alone \n29:14 Family Portrait \n34:06 Who Knew \n39:14 Dear Mr. President \n45:16 Fuckin' Perfect \n49:48 Try \n54:09 Funhouse \n58:11 Sober \n1:02:57 Blow Me (One Last Kiss)\n1:08:03 So What\n\n\n===\nGeneral\nComplete name : Pink.-.iTunes.Festival.2012.WEBRip.1080p.h264-[f1d].MP4\nFormat : MPEG-4\nFormat profile : Base Media\nCodec ID : isom\nFile size : 1.65 GiB\nDuration : 1h 13mn\nOverall bit rate : 3 233 Kbps\nGenre : Music\nEncoded date : UTC 1904-01-01 00:00:00\nTagged date : UTC 1904-01-01 00:00:00\nWriting application : Lavf54.29.104\n\nVideo\nID : 1\nFormat : AVC\nFormat/Info : Advanced Video Codec\nFormat profile : High@L4\nFormat settings, CABAC : Yes\nFormat settings, ReFrames : 3 frames\nCodec ID : avc1\nCodec ID/Info : Advanced Video Coding\nDuration : 1h 13mn\nBit rate : 3 102 Kbps\nWidth : 1 920 pixels\nHeight : 1 080 pixels\nDisplay aspect ratio : 16:9\nFrame rate mode : Constant\nFrame rate : 25.000 fps\nColor space : YUV\nChroma subsampling : 4:2:0\nBit depth : 8 bits\nScan type : Progressive\nBits/(Pixel*Frame) : 0.060\nStream size : 1.59 GiB (96%)\nEncoded date : UTC 1904-01-01 00:00:00\nTagged date : UTC 1904-01-01 00:00:00\n\nAudio\nID : 2\nFormat : AAC\nFormat/Info : Advanced Audio Codec\nFormat profile : LC\nCodec ID : 40\nDuration : 1h 13mn\nBit rate mode : Constant\nBit rate : 126 Kbps\nChannel(s) : 2 channels\nChannel positions : Front: L R\nSampling rate : 44.1 KHz\nCompression mode : Lossy\nStream size : 65.7 MiB (4%)\nEncoded date : UTC 1904-01-01 00:00:00\nTagged date : UTC 1904-01-01 00:00:00","torrent":{"xt":"urn:btih:f508e5570dfc979856996e87b2092b632c9cf592","amp;dn":"P%21nk+-+iTunes+Festival+2012+WEBRip+1080p+h264-%5Bf1d%5D+MP4","amp;tr":["udp%3A%2F%2Ftracker.openbittorrent.com%3A80","udp%3A%2F%2Fopen.demonii.com%3A1337","udp%3A%2F%2Ftracker.coppersurfer.tk%3A6969","udp%3A%2F%2Fexodus.desync.com%3A6969"],"infoHash":"f508e5570dfc979856996e87b2092b632c9cf592","infoHashBuffer":{"type":"Buffer","data":[245,8,229,87,13,252,151,152,86,153,110,135,178,9,43,99,44,156,245,146]},"announce":[],"urlList":[]}}